<?xml version="1.0" encoding="iso-8859-1"?>
<!-- Generator: Adobe Illustrator 19.0.0, SVG Export Plug-In . SVG Version: 6.00 Build 0)  -->
<svg xmlns="http://www.w3.org/2000/svg" xmlns:xlink="http://www.w3.org/1999/xlink" version="1.1" id="Layer_1" x="0px" y="0px" viewBox="0 0 502.069 502.069" style="enable-background:new 0 0 502.069 502.069;" xml:space="preserve" width="512" height="512">
<g>
	<g>
		<path style="fill:#4D93E8;" d="M73.108,336.539c-47.59,19.713-73.918,65.27-58.806,101.756s65.944,50.083,113.534,30.371    s73.918-65.27,58.806-101.756C171.529,330.424,120.698,316.826,73.108,336.539z"/>
	</g>
	<g>
		<path style="fill:#4D93E8;" d="M374.238,295.644c-47.59,19.713-73.918,65.27-58.806,101.756s65.944,50.083,113.534,30.371    s73.918-65.27,58.806-101.756C472.66,289.529,421.829,275.932,374.238,295.644z"/>
	</g>
	<g>
		<polygon style="fill:#4D93E8;" points="492.038,95.874 190.907,137.525 190.907,65.997 492.038,24.345   "/>
		<path d="M180.907,340.995c-9.401-9.237-21.708-16.111-36.269-20.006c-23.557-6.301-50.319-4.061-75.357,6.311    c-25.038,10.371-45.546,27.71-57.748,48.823c-12.699,21.974-14.996,45.413-6.469,65.999s26.725,35.535,51.243,42.094    c8.768,2.345,17.978,3.507,27.379,3.507c15.858,0,32.259-3.307,47.978-9.818c25.038-10.371,45.546-27.71,57.748-48.823    c8.056-13.94,11.919-28.468,11.496-42.484V146.238l281.13-38.885v192.749c-9.401-9.237-21.708-16.111-36.269-20.006    c-23.557-6.301-50.319-4.06-75.357,6.311c-25.038,10.371-45.546,27.71-57.748,48.823c-12.699,21.974-14.997,45.413-6.47,65.999    c8.527,20.585,26.726,35.535,51.243,42.093c8.768,2.345,17.979,3.507,27.38,3.507c15.858,0,32.258-3.307,47.977-9.818    c25.038-10.371,45.546-27.71,57.748-48.824c8.054-13.936,11.917-28.461,11.496-42.474V24.345c0-2.891-1.251-5.641-3.431-7.54    s-5.075-2.759-7.939-2.366l-301.13,41.651c-4.946,0.684-8.63,4.912-8.63,9.906V340.995z M124.01,459.427    c-20.996,8.697-43.204,10.639-62.535,5.468c-18.37-4.914-31.842-15.72-37.934-30.426c-6.092-14.707-4.207-31.874,5.308-48.338    c10.012-17.325,27.089-31.656,48.085-40.353h0c13.611-5.638,27.492-8.314,40.5-8.314c27.535,0,51.154,11.993,59.968,33.272    C190.382,402.07,166.43,441.856,124.01,459.427z M200.907,126.047V74.709l281.13-38.885v51.338L200.907,126.047z M473.226,378.18    c-10.012,17.325-27.089,31.656-48.085,40.353c-42.421,17.57-87.49,6.374-100.469-24.959    c-12.979-31.333,10.974-71.12,53.394-88.691c13.293-5.506,27.071-8.304,40.298-8.304c7.665,0,15.145,0.94,22.237,2.837    c18.37,4.914,31.842,15.72,37.934,30.427C484.625,344.549,482.74,361.716,473.226,378.18z"/>
	</g>
	<g>
		<path d="M444.025,71.528c-4.915,0-9.201-3.625-9.893-8.631c-0.757-5.471,3.065-10.519,8.536-11.276l18-2.49    c5.466-0.755,10.52,3.065,11.276,8.536c0.757,5.471-3.065,10.519-8.536,11.276l-18,2.49    C444.943,71.496,444.481,71.528,444.025,71.528z"/>
	</g>
	<g>
		<path d="M224.025,101.958c-4.915,0-9.201-3.625-9.893-8.631c-0.757-5.471,3.065-10.519,8.536-11.276l185-25.588    c5.468-0.753,10.519,3.065,11.276,8.536s-3.065,10.519-8.536,11.276l-185,25.588C224.944,101.926,224.481,101.958,224.025,101.958    z"/>
	</g>
</g>















</svg>
