<svg width="580" height="400" xmlns="http://www.w3.org/2000/svg">
 <!-- Created with SVG Editor - http://github.com/mzalive/SVG Editor/ -->
 <g>
  <title>background</title>
  <rect fill="transparent" id="canvas_background" height="402" width="582" y="-1" x="-1"/>
  <g display="none" overflow="visible" y="0" x="0" height="100%" width="100%" id="canvasGrid">
   <rect fill="url(#gridpattern)" stroke-width="0" y="0" x="0" height="100%" width="100%"/>
  </g>
 </g>
 <g>
  <title>Layer 1</title>
  <path stroke="#0f0f00" id="svg_1" d="m63.516512,125.317325c-2.361586,0 -3.575439,-1.441192 -3.575439,-3.16944c0,-1.440857 0.606835,-2.839766 2.361586,-2.839766c1.213853,0 3.041153,1.398909 3.647987,2.839766c1.213853,2.097862 0,3.16944 -2.434134,3.16944zm403.688329,82.232623c5.402923,0 6.616592,0.369614 3.575439,2.839432c-1.754751,1.728248 -5.402739,3.169105 -7.15749,3.169105c-1.827116,0 -3.647987,-1.440857 -3.647987,-3.169105c0,-1.770642 2.434318,-2.839432 7.230039,-2.839432zm-377.208921,-100.589023c-5.402739,-0.699287 -6.009757,-4.240349 0,-5.309473c3.040969,-0.329227 4.795904,0.699176 4.795904,2.839766c0,1.770419 -1.754935,2.799268 -4.795904,2.469706zm-67.346345,111.864973c7.230039,-1.028961 7.230039,-1.768523 4.795904,-4.198066c-1.820871,-1.768523 -2.427706,-3.90889 -1.213853,-4.608289c0.606835,-1.071021 3.647987,0 5.402739,2.098085c2.434134,2.839766 4.254822,3.211611 9.050726,1.440857c2.975216,-1.069012 5.402739,-1.770196 5.402739,-0.699176c0,0.699176 1.8273,0 4.188886,-1.440857c3.648171,-2.098085 4.255006,-6.70827 0.607018,-9.1782c-2.968604,-2.098085 -18.035516,-1.398686 -22.224402,1.069012c-2.427706,1.770754 -4.255006,1.400917 -6.616592,-1.768188c-3.647987,-5.269421 -3.647987,-6.009206 4.795721,-6.338434c7.230039,0 7.230039,0 1.213853,-2.140368c-3.034541,-1.028961 -6.009574,-3.169105 -6.009574,-4.568014c0,-3.540839 8.377772,-5.638923 12.025759,-3.168994c1.213853,1.028738 3.575623,2.098085 6.009757,2.098085c4.795904,0 27.693077,-11.975795 27.693077,-14.445724c0,-1.070909 2.368198,-1.770085 4.795904,-1.070909c2.975033,0.371733 8.377955,-0.699176 13.853243,-2.46993c7.764325,-2.839543 7.764325,-3.169105 3.575439,-7.777394c-2.968604,-3.169105 -6.616592,-4.240349 -15.060484,-4.240349c-9.591625,0 -12.025759,0.69951 -14.994364,4.939859c-1.220465,2.839432 -4.868269,4.937628 -7.230039,4.937628c-4.188886,0 -5.402739,-3.167209 -1.213853,-4.937628c1.820688,-0.69951 3.034541,-3.169105 3.034541,-5.639035c0,-3.868727 -1.213853,-4.568014 -9.050726,-3.538942c-7.836873,0.699176 -7.836873,0.369614 -6.009757,-4.940082c1.213853,-3.168994 2.968604,-6.008537 4.189069,-6.338099c1.213853,-0.369614 2.427522,-3.538942 2.427522,-6.708047c0,-6.338768 3.582051,-7.407781 10.205255,-2.839766c3.034357,2.469818 4.861841,2.839766 6.009574,0.699176c1.213853,-1.398686 5.468675,-1.728248 12.091879,-1.029072c8.98479,1.398909 9.591625,1.029072 8.377772,-3.169105c-0.606835,-2.469595 -1.220281,-5.309361 -1.827116,-6.008537c0,-1.069347 -2.968604,-2.46993 -6.550656,-3.539277c-7.230039,-1.770085 -9.050726,-6.008537 -2.434134,-6.008537c1.8273,0 3.581867,-0.69951 3.581867,-2.100316c0,-1.069347 3.648171,-1.768523 8.443892,-1.44108c6.623204,0.371733 10.198643,-1.028514 19.249369,-8.43596c6.623204,-5.309696 11.418924,-8.149239 12.025943,-6.708382c0.606835,1.768523 3.647987,2.79726 6.62302,2.79726c4.795904,0 5.402923,-1.028738 3.648171,-5.637027c-0.613447,-3.169328 -3.648171,-7.037609 -5.475287,-8.808363c-5.402923,-3.910452 -5.402923,-8.478466 0,-7.080115c4.254822,1.400917 17.494434,-2.467698 17.494434,-4.937516c0,-1.071021 1.761363,-1.770419 4.188886,-1.770419c2.434318,0 3.582051,2.140256 3.582051,4.939748c0,3.538942 1.213853,4.937851 4.255006,3.908779c2.361586,-0.739674 4.189069,-2.839766 4.189069,-4.238341c0,-4.240572 19.249186,-11.648129 24.044906,-9.548148c1.827483,0.699733 3.647987,0 4.261802,-2.469595c1.754568,-4.939748 12.625982,-8.808363 17.421702,-6.338434c2.434318,1.028738 4.796088,0.69951 5.409535,-0.369614c1.213669,-1.400806 6.009574,-2.46993 11.412312,-2.799715c5.402739,-0.369614 12.632777,-1.770419 15.67393,-3.211277c11.412312,-4.568014 22.831421,-4.238452 27.627141,0.70163c3.041153,3.538719 4.254822,3.538719 4.254822,1.068789c0,-3.169328 2.368382,-3.538942 16.821847,-2.469595c22.897357,1.400806 26.479408,1.400806 34.9233,-0.369948c5.402739,-1.028961 7.229855,-0.699399 7.229855,2.140033c0,1.770754 1.754935,3.16944 4.189069,3.16944c1.820688,0 3.575439,-1.029072 3.575439,-2.100093c0,-2.839432 9.664357,-4.238341 18.108065,-2.839432c6.550656,1.400806 7.15749,1.770085 5.402739,11.277846c-0.606835,5.67931 0,9.547925 1.147917,9.547925c1.213669,0 2.434134,-2.46993 2.434134,-6.008872c0,-5.968597 6.616592,-8.436518 9.050726,-3.539054c0.607018,1.768634 2.361586,1.069124 3.575439,-1.728136c3.041336,-7.409677 9.664357,-3.541173 7.836873,4.568014c-1.820504,6.708047 -1.820504,6.708047 3.582235,4.238118c3.040969,-1.069124 5.402555,-3.868281 5.402555,-5.637027c0,-1.770531 1.827483,-3.870512 4.25519,-4.610297c4.795537,-1.398351 10.205071,3.909113 8.443708,7.779291c-0.606835,1.768857 -0.606835,3.169328 1.147733,3.169328c1.220465,0 2.434318,-1.028738 2.434318,-1.770419c0,-1.028961 2.975033,-1.398909 6.62302,-0.699176c7.830445,1.069124 8.978178,3.908556 2.36177,5.636803c-1.754751,0.741682 -3.582051,2.46993 -3.582051,3.91101c0,2.46993 1.220281,2.46993 7.836873,0c10.805478,-4.238341 15.601198,-3.91101 17.428682,0.699176c1.213669,2.46993 3.581867,3.54095 6.009574,2.46993c2.434134,-0.369837 7.836873,1.071021 12.025943,3.538942c3.647987,2.099981 9.050726,3.868615 11.484861,3.868615c3.582051,0 3.582051,1.770642 2.361586,6.710167c-1.213669,5.309696 -1.213669,6.008872 2.434318,3.868839c4.795721,-3.499002 6.616592,-3.169663 8.377955,1.768188c0.606835,2.46993 4.861657,4.240349 9.657561,5.309473c5.402739,0.70163 8.377955,2.469818 8.377955,4.569911c0,2.140256 1.820504,4.608289 3.647987,6.009095c4.795904,2.469595 3.575439,9.877152 -1.827483,12.34697c-1.820504,0.739785 -4.188702,0.369948 -4.795721,-0.699176c-1.213669,-1.071244 -5.402739,-1.071244 -13.239796,0c-12.632777,2.467698 -14.994364,3.169105 -12.025759,6.378485c1.8273,2.098085 22.837849,1.398909 34.316281,-1.071021c3.582051,-1.069236 4.795904,0 4.795904,4.939859c0,3.538719 -1.213853,6.338434 -3.034541,6.338434c-1.220465,0 -2.368198,1.069012 -2.368198,2.839432c0,4.240126 2.975216,3.868281 10.81209,-1.069347c4.182274,-2.839432 6.616408,-3.540839 9.591625,-1.770085c3.034541,1.770085 3.647987,1.770085 3.647987,-1.069347c0,-1.730368 -1.220465,-3.169105 -3.040969,-3.169105c-1.147917,0 -2.368382,-1.400806 -2.368382,-2.799715c0,-1.770196 1.761363,-3.169105 4.188886,-3.169105c1.8273,0 4.255006,0.699176 4.255006,1.728248c0,1.071467 2.368198,2.469818 5.409351,2.839766c4.182457,1.071244 5.402739,2.46993 4.795721,6.70827c-1.220281,8.10863 1.214037,10.578782 10.198643,9.180096c4.255006,-0.70163 6.616408,0 4.795904,1.398686c-0.540898,0.699176 0,2.46993 1.213853,3.209157c4.868269,2.100204 3.040969,7.038167 -2.36177,7.038167c-6.62302,0 -8.443892,1.770085 -4.861657,4.939524c2.427522,1.770419 4.254822,2.098085 6.616408,0.699399c5.475287,-3.538942 6.623204,-0.699399 7.230039,13.418549c0,7.077661 1.213853,12.716919 2.427706,12.716919c2.975033,0 1.8273,7.779291 -2.427706,10.948396c-2.368198,1.768523 -2.368198,3.496659 -0.606835,4.937516c4.254822,3.16944 0,12.34764 -5.409535,12.34764c-4.795537,0 -13.846447,6.708047 -13.846447,9.877375c0,3.870735 -7.764325,0 -9.591625,-4.238452c-1.820688,-3.868504 -1.820688,-3.868504 -3.041153,-1.071021c-1.147733,3.211388 5.409351,13.088764 10.87821,15.887921c3.581867,2.140591 -3.041153,5.67931 -7.837057,4.238452c-2.434318,-0.699176 -3.582051,-2.79726 -3.582051,-4.937628c0,-6.008537 -15.060484,-21.155557 -26.479408,-26.834643c-6.07551,-2.799715 -11.478432,-5.96882 -11.478432,-7.037832c0,-2.140368 -19.255798,-8.808363 -30.061276,-10.948619c-6.016369,-1.071021 -7.837057,-0.699287 -7.837057,2.140256c0,2.098085 -1.147733,2.79726 -3.582051,2.098085c-5.402739,-1.398909 -7.836873,1.770754 -3.040969,4.939859c6.62302,3.868504 5.475287,8.478466 -1.754751,6.708047c-4.861841,-1.069124 -5.468859,-0.69951 -3.647987,5.309584c0.606835,3.498667 1.8273,8.10863 1.8273,10.206714c0,2.140368 1.213669,3.539277 2.427522,3.539277c1.761547,0 2.368198,-0.69951 1.147917,-1.768523c-0.606835,-1.071244 0.61363,-2.100093 3.040969,-2.100093c1.827483,0 3.582051,1.400583 3.582051,2.799268c0,1.44108 -2.368014,2.839432 -6.62302,2.470153c-3.575439,0 -6.616592,-1.029072 -6.616592,-1.728471c0,-3.211611 -16.214829,-25.066344 -21.010549,-28.275724c-5.402923,-3.499002 -1.820871,-4.568014 -44.515108,12.017632c-6.616408,2.46993 -13.846447,7.779291 -17.494434,11.648129c-2.975216,3.868281 -7.770937,7.779291 -10.198643,8.478466c-2.434134,0.69951 -11.418924,6.338434 -19.255981,12.347305c-33.709447,26.462798 -28.234159,29.632126 -25.87239,83.673704c10.205071,40.950471 10.205071,40.950471 10.205071,40.950471c-24.051702,0 -24.051702,0 -24.051702,0c-19.856204,0 -19.856204,0 -19.856204,0c1.820688,-37.783485 1.820688,-37.783485 1.820688,-37.783485c1.213669,-3.166985 1.8273,-9.54759 2.434318,-13.086867c0.606835,-2.099981 -16.887783,-11.278181 -16.280765,-13.376043c0,-1.770419 18.101453,3.16944 18.101453,1.398686c2.975033,-25.763623 0,-46.260167 -7.837057,-57.1684c-1.820688,-6.708382 -16.8876,-28.273604 -19.249186,-28.273604c-0.607018,0 -4.861841,-2.099981 -9.050726,-4.569911c-7.230222,-4.608066 -10.198643,-4.937851 -50.531294,-6.338434c-43.301071,-1.438961 -43.301071,-1.438961 -43.301071,-1.438961c-10.264579,4.937851 -10.264579,4.937851 -10.264579,4.937851c-6.009574,3.211277 -12.025759,5.309473 -13.780694,5.309473c-3.647987,0 -18.714899,7.409343 -25.265555,11.64746c-0.606835,0 -1.213669,-0.369279 -1.213669,-0.699176c-0.607018,0 -0.607018,0 -0.607018,-0.369837c-0.606835,-1.028738 -1.220281,-2.099981 -2.434134,-3.169105c3.647987,-1.770419 6.62302,-2.84144 7.836873,-2.469595c1.820688,0.699176 3.582051,0 3.582051,-1.770754c0,-1.768523 -3.582051,-2.469818 -13.173676,-1.768523c-11.485044,1.069347 -14.460077,1.438961 -16.280765,5.637138c-2.975216,2.140256 -3.582051,5.309584 -1.820688,7.779514c-0.61363,3.169105 -0.61363,5.309361 0,5.309361c0.606835,0 1.213669,-0.699176 3.034541,-1.440857c0,0.369948 0.606835,0.741682 1.220281,1.071021c-6.016186,1.069124 -9.057338,4.238452 -8.443892,7.407557c-3.040969,1.440857 -6.016186,2.140256 -9.663989,3.20938c0,0 0,-0.369614 -0.541082,-0.369614c2.368198,-3.169105 3.582051,-6.708382 4.188886,-12.017743c1.220465,-5.96882 0.606835,-9.877375 -1.213669,-9.877375c-1.213853,0 -2.434134,1.440857 -2.434134,3.538607c0.606651,1.770754 -0.541082,3.539277 -2.968788,3.868839c-1.8273,0.369614 -3.040969,-0.329562 -3.040969,-2.098085c0,-4.240349 -2.36177,-4.240349 -7.771121,-0.371733c-2.427522,1.440857 -7.223427,3.169328 -11.412312,3.91101c-5.475287,1.028738 -7.230039,0.329227 -9.664173,-3.539277c-1.820688,-3.169105 -3.034541,-6.710167 -1.820688,-8.108853c0.606835,-1.770419 0.606835,-3.20938 -1.754751,-3.20938c-6.623204,0 -1.8273,-5.639258 6.009574,-6.710278zm51.744963,-81.161603c-3.647987,-0.369614 -6.623204,-1.398686 -7.836873,-2.839543c-0.607018,-2.099981 -1.213853,-2.099981 -1.213853,0c0,1.440857 -2.434134,2.46993 -4.795904,2.839543c-4.254822,0 -4.254822,0.369837 0.607018,1.770754c2.968421,0.699176 6.009574,1.768188 6.616408,1.768188c0.540898,0 3.582051,-1.069012 6.623204,-1.768188c5.402739,-1.770754 5.402739,-1.770754 0,-1.770754zm477.044248,56.838838c1.147917,0.69951 2.36177,-0.371733 2.36177,-2.140256c0,-1.400583 -1.213853,-2.799492 -2.36177,-2.799492c-1.827116,0 -3.040969,0.699399 -3.040969,1.728248c0,1.071244 1.213853,2.512101 3.040969,3.2115zm-4.254822,3.169328c-0.606835,-1.071244 -3.582051,-2.469818 -6.016186,-2.469818c-1.754751,0 -2.968604,1.398574 -1.754751,2.469818c0.540898,1.069124 2.975033,1.768634 5.402739,1.768634c2.368198,0 2.975033,-0.69951 2.368198,-1.768634zm-5.402739,15.886024c1.820688,0 4.254822,-0.369614 4.254822,-0.699176c0,-0.741682 -2.434134,-1.440857 -4.254822,-2.140368c-2.368198,-0.699399 -4.189069,-0.329562 -4.189069,0.69951c0,1.071021 1.820871,2.140033 4.189069,2.140033zm4.795904,-33.54269c2.427522,-0.699733 3.647804,-1.770642 3.034541,-2.799715c-1.820871,-2.50987 -12.019514,-2.50987 -12.019514,0c0,2.799715 3.575623,3.868839 8.984974,2.799715zm-33.036492,-26.465253c-3.041153,1.071244 -4.861841,3.169328 -4.25519,4.240349c3.041153,2.797595 6.623388,2.098085 9.657745,-2.46993c2.975216,-4.240349 1.761363,-4.939524 -5.402555,-1.770419zm-11.485044,54.36902c15.673747,9.507427 16.280765,9.877375 16.280765,6.70827c0,-1.768523 -1.213853,-3.20938 -3.041153,-3.20938c-1.754568,0 -4.795721,-1.770754 -6.616408,-3.868504c-1.754935,-2.100316 -5.402739,-4.240684 -8.377955,-4.240684c-5.468675,0 -5.468675,0.371845 1.754751,4.610297zm-12.626349,-16.627929c3.641559,0 5.402923,-0.699176 3.034724,-1.028849c-1.820688,-0.699399 -4.795904,-0.699399 -6.616592,0c-1.827483,0.329674 0,1.028849 3.581867,1.028849zm-17.428498,-47.988415c1.820688,1.069347 7.223427,2.468033 12.019147,3.16944c8.444075,1.069012 9.05091,1.069012 4.255006,-1.770419c-5.468675,-3.499002 -20.463039,-4.568014 -16.274153,-1.399021zm-36.684663,-58.566751c-1.820688,1.028738 -2.427522,3.169105 -1.820688,4.56768c1.213853,2.839766 4.795904,0.369948 4.795904,-3.868504c0,-2.140368 -0.607018,-2.46993 -2.975216,-0.699176zm18.035516,76.223752c4.795904,1.7683 6.623204,1.7683 9.057522,-0.701407c4.795721,-3.868727 1.754568,-5.637027 -7.230222,-3.168994c-7.230039,1.730144 -7.230039,1.730144 -1.8273,3.870401zm-12.019147,-17.657001c9.050726,-3.868169 9.050726,-3.868169 1.820688,-3.868169c-4.861841,0 -8.443892,1.398351 -10.264579,3.868169c-1.147917,2.468033 -2.368198,3.868839 -1.761363,3.868839c0,0 4.795904,-2.100204 10.205255,-3.868839zm-13.239796,57.208786c4.182274,3.868839 11.412496,3.868839 9.050726,-0.369837c-0.606835,-1.400583 -1.220281,-3.169105 -1.220281,-3.54095c0,-0.329562 -2.427706,-0.329562 -5.402739,0.371845c-4.861841,0.699399 -4.861841,1.768523 -2.427706,3.538942zm-18.648963,-14.487561c4.795721,3.868727 7.230039,4.238341 12.632777,1.398909c3.582051,-1.768523 3.582051,-1.768523 0,-2.098085c-1.820688,0 -6.616592,-0.371845 -10.805478,-1.071244c-6.016186,-1.398686 -6.016186,-1.398686 -1.8273,1.770419zm-0.606835,-38.482773c3.040969,0 6.62302,-5.638923 4.795904,-7.407446c-2.36177,-1.770419 -7.22361,1.069012 -7.22361,4.238341c0,1.770531 1.213853,3.169105 2.427706,3.169105zm-29.448012,23.9951c-3.647987,1.440857 -3.040969,1.770754 1.754935,1.770754c3.040969,0 6.616408,-0.70163 7.836873,-1.770754c1.820504,-2.799157 -4.189069,-2.799157 -9.591808,0zm0.607018,31.073319c0.540898,0.371845 2.361586,-0.369837 4.188886,-2.098085c1.820504,-1.440857 7.22361,-3.211277 11.412312,-3.910787c5.402739,-1.069347 7.837057,-2.797483 7.837057,-5.309584c0,-5.966365 -8.443892,-4.198177 -17.428865,3.541062c-3.647804,3.90889 -6.616408,7.078219 -6.00939,7.777394zm-6.62302,-16.256084c5.402555,-3.868281 5.402555,-4.569911 1.147549,-5.639035c-4.795721,-1.398909 -8.37116,1.770754 -8.37116,7.407557c-0.613447,4.240349 -0.613447,4.240349 7.22361,-1.768523zm-9.657745,-41.651766c0.606835,2.839432 1.820688,2.469818 5.402555,-2.799492c4.25519,-5.637138 4.25519,-6.37882 0.607018,-6.37882c-2.361586,0 -4.795904,1.069347 -5.402739,2.839878c-1.213853,1.398574 -1.213853,4.610186 -0.606835,6.338434zm-2.975216,-28.933062c0,1.438961 1.147733,4.937851 2.368198,7.407557c1.820688,4.939748 1.820688,4.939748 3.647987,0.699399c2.361586,-4.238118 0,-10.576551 -3.647987,-10.576551c-1.761363,0 -2.368198,1.068789 -2.368198,2.469595zm-42.146726,11.645898c-2.975033,2.46993 -2.975033,4.939859 -0.613447,12.347305c1.220465,5.309473 4.261618,10.619057 6.016186,11.648129c3.041153,1.770419 3.647987,0 4.254822,-10.946723c0,-13.376377 -3.040969,-17.616392 -9.657561,-13.048712zm5.402739,37.413649c0.607018,0.69951 1.820688,-0.699399 1.213853,-2.79938c0,-2.140368 -0.606835,-2.46993 -1.820688,-1.069124c-0.541082,1.398686 -0.541082,3.169105 0.606835,3.868504zm21.683504,-33.1733c-0.606835,0.69951 -0.606835,5.639258 1.213853,10.946723c1.8273,9.180096 2.368198,9.54971 2.975216,2.84144c0.606835,-10.948619 -0.607018,-16.25798 -4.189069,-13.788162zm-20.469651,99.560063c3.647987,-4.240349 9.657745,-11.318568 13.846631,-15.558582c4.795721,-4.568349 7.836873,-10.576886 9.050726,-16.585757c1.761363,-9.507762 1.761363,-9.507762 1.761363,-9.507762c-7.230039,5.26931 -7.230039,5.26931 -7.230039,5.26931c-3.582051,2.839766 -6.009757,6.008872 -6.009757,7.078219c0,2.799268 -11.418924,20.455935 -15.000976,23.625263c-1.820688,1.768188 -4.861841,5.67931 -5.402739,8.478466c-3.041153,8.107179 2.368198,6.70827 8.98479,-2.799157zm-42.694237,36.342405c1.8273,7.037609 1.8273,7.037609 7.837057,-8.108964c3.582051,-8.149351 8.98479,-21.195608 12.632777,-29.304684c4.795721,-10.247324 6.62302,-18.72579 6.62302,-30.703147c0,-15.55702 -0.613447,-15.886582 -5.409167,-14.115828c-10.871598,4.567903 -16.887783,17.284821 -19.315489,41.979097c-1.147733,12.719373 -2.368198,25.436292 -3.581867,28.235783c-0.607018,2.839543 0,8.149128 1.213669,12.017743zm1.220465,-90.341811c2.361586,3.49889 4.795904,6.338434 4.795904,6.338434c0.606835,0 3.575255,-2.140368 6.009574,-4.939524c3.040969,-2.467921 7.836873,-5.307465 9.657745,-6.336537c7.163919,-3.211277 8.984606,-13.088652 2.975033,-19.796922c-4.795904,-6.008872 -18.035516,-12.71915 -20.469834,-10.578782c-1.213669,0.699399 -2.968421,7.409677 -4.188886,15.187071c-2.427522,11.647795 -2.427522,15.188633 1.220465,20.126261zm-3.647987,-80.833714c1.213853,0.701407 2.427522,0.329562 2.427522,-0.73945c0,-1.400806 -1.213669,-2.799715 -2.427522,-3.499002c-1.8273,-0.74157 -2.975216,-0.369837 -2.975216,1.029072c0,1.069124 1.147917,2.46993 2.975216,3.20938zm-194.887973,94.909267c8.377772,0.371733 8.377772,0.371733 8.377772,0.371733c8.443892,0 16.887783,-4.569911 16.887783,-8.478466c0,-2.46993 -0.606835,-2.46993 -25.265555,8.106733zm3.582051,-9.877487c0,1.071578 1.213853,2.140368 3.041153,2.140368c2.968604,0 11.412312,-6.338434 9.591625,-7.407446c-1.8273,-1.440857 -12.632777,3.168994 -12.632777,5.267078zm6.62302,-24.324327c9.05091,7.039506 13.239796,7.738904 18.035516,3.168994c4.861841,-4.238118 0.607018,-7.077884 -13.853059,-8.106956c-12.019331,-1.071244 -12.019331,-1.071244 -4.182457,4.937963zm-6.62302,-19.795137c0,0.73945 4.254822,2.467698 9.050726,3.908556c22.224586,6.708382 26.479408,6.708382 25.87239,0.329897c0,-3.868839 -9.050726,-12.347528 -12.632777,-12.347528c-4.254822,0 -22.290339,6.70827 -22.290339,8.109076zm32.495594,50.128671c6.616592,0 7.223427,-1.069347 1.820688,-2.797595c-2.434134,-0.371733 -4.795904,0 -5.402739,1.029072c-1.220465,1.068789 0.606835,1.768523 3.582051,1.768523zm4.795904,-82.932134c-4.189069,-1.770642 -9.59842,-2.469818 -12.025943,-1.770642c-4.188886,1.400806 -3.582051,1.770642 2.427522,2.839432c2.975216,0.70163 9.057522,1.400917 12.025943,1.730479c3.582051,0 3.582051,-0.701407 -2.427522,-2.799268zm-0.540898,12.716919c3.575255,0 4.188886,-0.369837 1.754751,-1.438961c-1.754751,-0.329339 -4.189069,-0.329339 -5.402923,0.369948c-0.606835,0.699176 1.213853,1.398909 3.648171,1.069012zm3.575255,8.109187c-8.443708,0 -8.443708,0.329227 -3.575255,3.168994c6.009574,3.169105 7.764325,3.538719 10.198643,1.398686c4.188702,-2.797595 1.213669,-4.56768 -6.623388,-4.56768zm12.026126,-39.881682c-2.434318,-1.770419 -3.041153,1.398909 -1.820871,5.267413c0.606835,2.46993 3.034541,4.609963 4.255006,4.609963c2.361586,0 0.606835,-7.779291 -2.434134,-9.877375zm19.249186,46.589394c-1.213669,0.329897 1.8273,2.46993 5.409351,4.240572c3.647987,1.768523 6.616408,2.46781 6.616408,1.398686c0,-2.469595 -10.198459,-7.079781 -12.025759,-5.639258zm-15.060484,2.46993c-5.402739,2.470153 -2.361586,8.808252 5.468859,9.877599c4.188886,0.699287 10.81209,3.539054 15.000976,6.33821c3.647987,2.839766 6.616408,3.91101 6.616408,2.839766c0,-3.538942 -24.04509,-20.496433 -27.086243,-19.055575zm24.65872,29.305019c-3.581867,-5.681429 -7.770937,-8.479024 -15.607994,-10.249444c-6.009574,-1.398686 -12.025759,-2.140033 -13.846447,-1.7683c-1.8273,0.369614 5.402739,4.937628 15.67393,10.247101c19.249186,9.1782 19.249186,9.1782 13.780511,1.770642zm31.948083,-54.369243c-1.213853,0 -2.434318,1.398909 -2.434318,2.797595c0,1.770419 1.220465,2.839766 2.434318,2.839766c1.754751,0 2.975216,-1.069347 2.975216,-2.839766c0,-1.398686 -1.220465,-2.797595 -2.975216,-2.797595zm-5.468675,28.933062c0,2.469595 10.264579,0.699399 14.453465,-2.46993c6.009757,-5.309361 5.402739,-6.70827 -2.434134,-6.70827c-5.402739,0 -12.019331,4.939971 -12.019331,9.1782zm17.494618,-76.224087c-1.8273,4.568014 -3.041153,8.436518 -2.434134,8.808363c1.827116,1.398909 6.623204,-9.177977 6.623204,-13.418326c0,-1.768523 -1.827483,0.371845 -4.189069,4.609963zm31.275312,71.284227c-3.041153,0 -5.402923,0.70163 -5.402923,2.099981c0,1.069347 1.754751,1.770754 3.575439,1.770754c2.434134,0 4.795904,-0.701407 5.409351,-1.770754c1.213853,-1.398351 -0.613447,-2.099981 -3.581867,-2.099981zm-7.230222,66.346376c3.582051,6.380717 8.98479,12.347305 12.025943,13.788162c3.041153,1.069347 9.050726,6.009095 12.632777,10.948619c3.582051,4.937851 7.230039,8.806467 7.837057,8.806467c2.968421,0 -3.041153,-32.472004 -7.230039,-42.351277c-3.648171,-8.47657 -4.796088,-16.256084 -4.189069,-28.603389c0.540898,-9.177977 0,-17.287053 -1.213669,-17.98634c-0.607018,-0.699399 -4.795904,-0.699399 -8.443892,0c-6.623204,1.398686 -7.230039,2.46993 -7.230039,10.24922c0,5.9667 -1.214037,9.1782 -4.189069,10.576551c-8.443708,3.16944 -7.836873,21.155668 0,34.571986zm-17.428498,-47.288793c-1.213853,-5.309473 -2.427522,-6.008872 -9.050726,-6.008872c-7.837057,0 -7.837057,0.369837 -7.230039,7.777394c0,4.569911 1.220281,9.879272 1.827116,12.347194c0.607018,2.46993 2.975216,4.939524 5.402923,5.309473c4.795721,1.770642 10.198459,-10.576551 9.050726,-19.425189zm-9.050726,35.640998c-5.402923,-4.238452 -9.050726,-8.806467 -9.591808,-9.877375c0,-1.398686 -3.040969,-4.937628 -6.616592,-8.106956c-3.647987,-3.169105 -7.836873,-7.079892 -9.664173,-8.478801c-6.009574,-4.939524 -4.795904,-0.699176 1.8273,10.247324c4.188886,7.409343 11.412496,14.117724 19.856204,19.756648c15.60781,9.547814 17.428682,7.777729 4.189069,-3.540839zm-9.591808,17.327104c6.550656,0 6.009757,-0.369614 -3.040969,-6.008537c-6.009757,-3.539277 -10.198643,-7.407781 -10.198643,-9.178311c0,-1.398574 -7.837057,-6.378708 -16.8876,-10.946723c-8.984974,-4.609851 -17.428865,-9.177865 -18.642535,-10.578448c-1.220465,-1.768523 -1.8273,-1.768523 -1.8273,0.329562c0,2.140368 -2.968604,2.469595 -12.632777,1.398686c-6.616592,-0.69951 -12.019331,-0.69951 -12.019331,-0.327665c0,0.699399 2.427522,4.937851 4.861841,9.177865c4.189069,7.037944 6.009574,8.479024 19.249369,11.276396c8.377955,1.770419 21.617384,6.00876 30.061276,9.177865c7.837057,3.211611 17.428682,5.67931 21.076669,5.67931zm-93.898118,11.977357c2.434134,0 6.016186,-0.699176 8.443708,-1.770085c4.189069,-2.468033 0.61363,-2.468033 -7.223427,0c-3.582051,1.070909 -4.188886,1.400471 -1.220281,1.770085zm-6.616592,-8.808252c6.009757,-1.438738 25.265555,-2.839543 42.760173,-2.839543c33.030064,-0.329562 39.653084,-1.398351 26.413288,-3.538942c-4.188702,-0.699176 -13.780511,-2.46993 -21.617384,-4.238452c-13.846631,-3.169105 -42.153338,-2.099981 -45.121943,1.439295c-0.613447,0.701072 -3.647987,1.070909 -6.62302,0.701072c-6.009757,-1.071021 -12.025943,1.768746 -13.846631,7.407781c-2.434134,4.56768 1.820688,4.939524 18.035516,1.068789zm-48.096976,8.109076c1.213853,2.839766 7.230039,3.169105 12.025943,0.699176c2.968421,-1.398574 2.968421,-2.09775 0,-4.238118c-2.434134,-2.100316 -4.188886,-2.100316 -7.836873,-0.329562c-2.434134,1.029072 -4.189069,2.797595 -4.189069,3.868504zm-19.249369,24.69461c2.36177,0 3.575623,1.069347 2.36177,3.169328c-0.541082,1.440857 -2.36177,2.839543 -3.582051,2.839543c-1.820688,0 -2.968604,-1.398686 -2.968604,-2.839543c0,-1.728248 1.754751,-3.169328 4.188886,-3.169328z" stroke-width="1.5" fill="#000000"/>
 </g>
</svg>
