<?xml version="1.0" encoding="iso-8859-1"?>
<!-- Generator: Adobe Illustrator 19.0.0, SVG Export Plug-In . SVG Version: 6.00 Build 0)  -->
<svg version="1.1" id="Capa_1" xmlns="http://www.w3.org/2000/svg" xmlns:xlink="http://www.w3.org/1999/xlink" x="0px" y="0px"
	 viewBox="0 0 438.857 438.857" style="enable-background:new 0 0 438.857 438.857;" xml:space="preserve">
<polygon style="fill:#00BBD3;" points="423.184,254.955 423.184,391.837 359.445,391.837 359.445,389.224 235.624,236.669 
	315.037,161.437 "/>
<polygon style="fill:#D4E1F4;" points="235.624,236.669 359.445,389.224 359.445,391.837 15.673,391.837 15.673,257.567 
	174.498,161.437 "/>
<polygon style="fill:#4DCFE0;" points="423.184,47.02 423.184,254.955 315.037,161.437 235.624,236.669 174.498,161.437 
	15.673,257.567 15.673,47.02 "/>
<path style="fill:#3A2C51;" d="M423.184,31.347H15.673C6.792,31.347,0,38.139,0,47.02v344.816c0,8.882,6.792,15.673,15.673,15.673
	h407.51c8.882,0,15.673-6.792,15.673-15.673V47.02C438.857,38.139,432.065,31.347,423.184,31.347z M407.51,62.694v157.78
	l-82.024-71.053c-6.269-5.224-15.151-5.224-20.898,0.522l-67.396,63.739l-50.678-62.171c-4.702-6.269-13.584-7.837-20.376-3.657
	L31.347,229.878V62.694H407.51z M31.347,266.449l139.494-84.637l157.78,194.351H31.347V266.449z M368.849,376.163L257.045,238.237
	l58.514-55.38l91.951,79.412v113.894H368.849z"/>
<g>
</g>
<g>
</g>
<g>
</g>
<g>
</g>
<g>
</g>
<g>
</g>
<g>
</g>
<g>
</g>
<g>
</g>
<g>
</g>
<g>
</g>
<g>
</g>
<g>
</g>
<g>
</g>
<g>
</g>
</svg>
