<?xml version="1.0" encoding="iso-8859-1"?>
<!-- Generator: Adobe Illustrator 19.0.0, SVG Export Plug-In . SVG Version: 6.00 Build 0)  -->
<svg version="1.1" id="Capa_1" xmlns="http://www.w3.org/2000/svg" xmlns:xlink="http://www.w3.org/1999/xlink" x="0px" y="0px"
	 viewBox="0 0 512 512" style="enable-background:new 0 0 512 512;" xml:space="preserve">
<g>
	<g transform="translate(1 14)">
		<path style="fill:#D13D34;" d="M255,105.467v273.067H75.8c-4.707-0.014-8.519-3.826-8.533-8.533V165.2L127,105.467H255z"/>
		<path style="fill:#F85B44;" d="M229.4,105.467v273.067H75.8c-4.707-0.014-8.519-3.826-8.533-8.533V165.2L127,105.467H229.4z"/>
		<path style="fill:#D13D34;" d="M127,105.467v51.2c-0.014,4.707-3.826,8.519-8.533,8.533h-51.2L127,105.467z"/>
		<path style="fill:#00B7F6;" d="M383,105.467H255v273.067h179.2c4.707-0.014,8.519-3.826,8.533-8.533V165.2L383,105.467z"/>
		<g>
			<path style="fill:#008AC7;" d="M383,105.467l59.733,59.733V370c-0.014,4.707-3.826,8.519-8.533,8.533h-25.6
				c4.707-0.014,8.519-3.826,8.533-8.533V165.2L383,105.467z"/>
			<path style="fill:#008AC7;" d="M442.733,165.2h-51.2c-4.707-0.014-8.519-3.826-8.533-8.533v-51.2L442.733,165.2z"/>
		</g>
	</g>
	<g>
		<path d="M76.8,401.067h170.667v102.4c0,4.713,3.821,8.533,8.533,8.533c4.713,0,8.533-3.82,8.533-8.533v-102.4H435.2
			c9.421-0.011,17.056-7.645,17.067-17.067V179.2c0-0.182-0.093-0.344-0.105-0.524c-0.046-0.755-0.195-1.499-0.441-2.214
			c-0.08-0.268-0.174-0.533-0.282-0.792c-0.403-0.928-0.969-1.776-1.673-2.503l-59.733-59.733c-1.496-1.391-3.42-2.232-5.457-2.385
			c-0.198-0.014-0.377-0.115-0.577-0.115H264.533V8.533C264.533,3.821,260.713,0,256,0c-4.713,0-8.533,3.821-8.533,8.533v102.4H128
			c-0.191,0-0.361,0.097-0.551,0.109c-0.741,0.047-1.472,0.193-2.175,0.433c-0.275,0.082-0.545,0.178-0.809,0.287
			c-0.926,0.402-1.772,0.968-2.498,1.67l-59.733,59.733c-1.403,1.509-2.248,3.452-2.395,5.507c-0.011,0.181-0.105,0.344-0.105,0.526
			V384C59.744,393.421,67.379,401.056,76.8,401.067z M264.533,384V128h110.933v42.667c0.011,9.421,7.645,17.056,17.067,17.067H435.2
			V384H264.533z M423.133,170.667h-30.6v-30.6L423.133,170.667z M247.467,384H76.8V187.733h42.667
			c9.421-0.011,17.056-7.645,17.067-17.067V128h110.933V384z M119.467,140.067v30.6h-30.6L119.467,140.067z"/>
		<path d="M155.058,217.382c-0.268,0.32-0.51,0.66-0.725,1.018l-22.769,51.231l-0.099,0.222L120.2,295.2
			c-1.912,4.307,0.028,9.348,4.333,11.262c1.087,0.489,2.266,0.742,3.458,0.742c3.376,0.001,6.436-1.986,7.808-5.071l9.127-20.533
			h34.415l9.126,20.533c1.372,3.084,4.432,5.072,7.808,5.071c1.192,0,2.371-0.253,3.458-0.742c4.306-1.914,6.246-6.956,4.333-11.262
			l-11.264-25.345l-0.101-0.227L169.933,218.4c-0.221-0.373-0.472-0.727-0.751-1.059c-0.555-1.135-1.48-2.048-2.623-2.589
			c-0.303-0.25-0.623-0.478-0.959-0.681c-0.065-0.029-0.134-0.017-0.199-0.044c-0.617-0.215-1.256-0.358-1.906-0.426
			c-0.884-0.321-1.854-0.319-2.737,0.004c-0.638,0.068-1.267,0.208-1.874,0.417c-0.071,0.03-0.147,0.017-0.218,0.048
			c-0.366,0.218-0.714,0.465-1.041,0.738C156.505,215.354,155.6,216.26,155.058,217.382L155.058,217.382z M152.511,264.533
			l9.622-21.65l9.622,21.65H152.511z"/>
		<path d="M384,238.933c-0.015-14.132-11.468-25.585-25.6-25.6h-34.133c-2.263-0.001-4.434,0.898-6.035,2.499
			s-2.499,3.771-2.499,6.035v76.8c-0.001,2.263,0.898,4.434,2.499,6.035c1.6,1.6,3.771,2.499,6.035,2.499h29.867
			c11.828,0.05,22.561-6.914,27.336-17.736c4.775-10.822,2.683-23.444-5.327-32.147C381.157,252.515,383.995,245.876,384,238.933
			L384,238.933z M332.8,230.4h25.6c4.713,0,8.533,3.821,8.533,8.533c0,4.713-3.82,8.533-8.533,8.533h-25.6V230.4z M354.133,290.133
			H332.8v-25.6h21.333c7.069,0,12.8,5.731,12.8,12.8S361.203,290.133,354.133,290.133z"/>
	</g>
</g>
<g>
</g>
<g>
</g>
<g>
</g>
<g>
</g>
<g>
</g>
<g>
</g>
<g>
</g>
<g>
</g>
<g>
</g>
<g>
</g>
<g>
</g>
<g>
</g>
<g>
</g>
<g>
</g>
<g>
</g>
</svg>
